/* XPM */
static char *_a1f801b385c41f3f74ae9cd533a6063MA3ryBoFdicGmtvv[] = {
/* columns rows colors chars-per-pixel */
"50 50 256 2 ",
"   c #050403",
".  c #0B0403",
"X  c #060905",
"o  c #0B0B0B",
"O  c #070809",
"+  c #1C0A05",
"@  c #120B0B",
"#  c #1D0C0C",
"$  c #170504",
"%  c #07120A",
"&  c #0B0D13",
"*  c #010D17",
"=  c #190B14",
"-  c #091319",
";  c #191317",
":  c #17110D",
">  c #240A04",
",  c #220E0E",
"<  c #250804",
"1  c #25150C",
"2  c #220D17",
"3  c #231314",
"4  c #251717",
"5  c #351D14",
"6  c #381908",
"7  c #3A2417",
"8  c #27221C",
"9  c #1B0D25",
"0  c #0B1827",
"q  c #161828",
"w  c #191937",
"e  c #0F1335",
"r  c #241526",
"t  c #251733",
"y  c #30142D",
"u  c #0A212B",
"i  c #18222B",
"p  c #162837",
"a  c #11293B",
"s  c #342D2A",
"d  c #0C2110",
"f  c #452617",
"g  c #5A381C",
"h  c #4C2F17",
"j  c #6D3A19",
"k  c #422B23",
"l  c #482724",
"z  c #4B3529",
"x  c #593A28",
"c  c #473A33",
"v  c #563D34",
"b  c #4B2832",
"n  c #643C27",
"m  c #74372E",
"M  c #733F31",
"N  c #40190A",
"B  c #6B4B1D",
"V  c #5A4335",
"C  c #55472E",
"Z  c #694628",
"A  c #7B4C2C",
"S  c #754829",
"D  c #7A522B",
"F  c #664636",
"G  c #774C34",
"H  c #785438",
"J  c #67503B",
"K  c #5C421D",
"L  c #181943",
"P  c #291943",
"I  c #301643",
"U  c #142E49",
"Y  c #24384B",
"T  c #283C55",
"R  c #32304E",
"E  c #2A376D",
"W  c #103C6F",
"Q  c #583A56",
"!  c #2C4958",
"~  c #1C4862",
"^  c #32556A",
"/  c #335974",
"(  c #2B526D",
")  c #3A6479",
"_  c #2E6979",
"`  c #1B405B",
"'  c #504C4D",
"]  c #725957",
"[  c #70544C",
"{  c #7C6244",
"}  c #6F645F",
"|  c #555B73",
" . c #655465",
".. c #42687B",
"X. c #5C6B6E",
"o. c #7A6B6A",
"O. c #79726A",
"+. c #726B75",
"@. c #8C3F35",
"#. c #83461B",
"$. c #854927",
"%. c #85562E",
"&. c #864936",
"*. c #865638",
"=. c #955937",
"-. c #97552D",
";. c #8A6238",
":. c #936636",
">. c #A26538",
",. c #A4593C",
"<. c #835944",
"1. c #915748",
"2. c #8C4F51",
"3. c #8A6345",
"4. c #966647",
"5. c #906B53",
"6. c #A26947",
"7. c #A97957",
"8. c #B57B56",
"9. c #AE744C",
"0. c #90716A",
"q. c #B26456",
"w. c #BC8457",
"e. c #B5896C",
"r. c #9F897B",
"t. c #1B548B",
"y. c #2E5E83",
"u. c #1F6397",
"i. c #3B6D85",
"p. c #356889",
"a. c #3B738A",
"s. c #2B6997",
"d. c #386B94",
"f. c #39759A",
"g. c #2D6C8F",
"h. c #2E76A3",
"j. c #3C7BA3",
"k. c #3B7EAB",
"l. c #3578A5",
"z. c #2F6DA7",
"x. c #446B88",
"c. c #47738B",
"v. c #456C92",
"b. c #447393",
"n. c #447599",
"m. c #457B9C",
"M. c #497A97",
"N. c #56728C",
"B. c #70768D",
"V. c #437CA2",
"C. c #4A7DA2",
"Z. c #4B7DAA",
"A. c #567DA5",
"S. c #405D87",
"D. c #947E94",
"F. c #3C83AD",
"G. c #3B85A9",
"H. c #3C84B3",
"J. c #3D89B7",
"K. c #3B91BB",
"L. c #31829F",
"P. c #4A829B",
"I. c #59869B",
"U. c #628C9D",
"Y. c #74869A",
"T. c #72929D",
"R. c #4B84A4",
"E. c #4384AB",
"W. c #4B84AA",
"Q. c #4C8BAC",
"!. c #4687A6",
"~. c #548CAB",
"^. c #5785A7",
"/. c #4991AE",
"(. c #5794AB",
"). c #4285B5",
"_. c #438AB4",
"`. c #438BBB",
"'. c #488BB7",
"]. c #528DB1",
"[. c #4C93B3",
"{. c #4B94BC",
"}. c #4796BA",
"|. c #5493B3",
" X c #549BBB",
".X c #5B9DBC",
"XX c #5798B5",
"oX c #648DAA",
"OX c #6896A9",
"+X c #729CAC",
"@X c #679BB8",
"#X c #728DB1",
"$X c #59A4BC",
"%X c #54ABBD",
"&X c #68A2BA",
"*X c #74A1B3",
"=X c #73A4BC",
"-X c #7BA8BB",
";X c #61B3BE",
":X c #4A94C3",
">X c #4C9CC3",
",X c #4795C3",
"<X c #529CC4",
"1X c #589CC8",
"2X c #4B93C9",
"3X c #669CC4",
"4X c #4EA2C4",
"5X c #4AA1CB",
"6X c #53A3C4",
"7X c #5CA4C3",
"8X c #57A9CA",
"9X c #5DB4C8",
"0X c #5BB2D2",
"qX c #57AAD5",
"wX c #64ABC4",
"eX c #62ACCC",
"rX c #69A8C6",
"tX c #76AAC6",
"yX c #68B6CB",
"uX c #7CB4CB",
"iX c #77B6CA",
"pX c #68B9D4",
"aX c #78BBD6",
"sX c #78A9D4",
"dX c #57B2F0",
"fX c #6AB7F2",
"gX c #6CC4D7",
"hX c #74C6D8",
"jX c #75C7D1",
"kX c #76C7E6",
"lX c #72D3ED",
"zX c #3F98D2",
"xX c #858995",
"cX c #83ABBC",
"vX c #92B7BD",
"bX c #8A98B5",
"nX c #84AEC3",
"mX c #84B5CB",
"MX c #8BBBCC",
"NX c #88B5C7",
"BX c #93BBCC",
"VX c #87BBD3",
"CX c #92BDD2",
"ZX c #9BBAD2",
"AX c #8FA9CE",
"SX c #8DC3D3",
"DX c #89C7D9",
"FX c #94C3D2",
"GX c #94CBD9",
"HX c #9ACCDA",
"JX c #96C7D7",
"KX c #8BD1DB",
"LX c #94D1DB",
"PX c #91C1CF",
"IX c #87D2E6",
"UX c #A4CEDF",
/* pixels */
"/. X}.G.j.V.V.f.g.p.p.f.'.`.}.Q.E.g.V.m.v.v.d.^.6X7X/.R.P.M.(.yXhXjX&XR.R.wXyX;X(.(.(.(.A.x.x.x.....",
"f./.}._.G.f.j.j.G.d.y.n.|.[.Q.R.R.Q.|.Q.m.b.n.W.7XwXQ.R.^.m.~.wXgXyX&X~.XXwXjXjX&XXX(.~.^.M.x.x.....",
"h./.4X X_.l.f.E.H.E.f.n.!.G.!.R.Q.7X$X XQ.f.f.Z.XX.XR.C.^.C.W..X;X$X(.~.XXwXjXjXwXXXR.P.M.M.c.x.....",
"G.6X8X4X_.j.j.F.`.E.g.p.j.F.F.G.}. X}.4X Xf.d.Z.!.Q.f.V.W.C.Q.$X;X$X~.~.XXwXpXgXwXXXP.m.M.b.c.x.) ) ",
" X8X6X}.G.F.F.F.J.j.g.d.k.F.K.<X8X8X0X6XQ.a.( x.j.E.l.j.Q.Q.XXyXgXyX.XQ. XyXgXyXwXXX!.m.m.M.b.c.) ) ",
"}.6X>XG.G._._._.G.E.f.f.J.,X XQ.d.f.~.i.( ` a Y V.W.j.V.Q.Q.$XjXlXhXwXQ.[.pXgXyXwXXXR.R.m.M.b.b.x.) ",
"G.}.>XK.F.E._.{.{._.s.h.{.XXi.a * u p u - 0 - 0 / i.p.d.Z.W. XpXgXhXwXE.Q.eXpXeX$X~.!.V.C.M.b.b.x.i.",
"h._.4X>XH.l.F.{.{.k.s.).E.~ -   $ . . @ @ @ - * u U ~ y.C.Z.{.0XpXyX$XW.W.$XyXwX.XQ.V.m.m.n.v.v.i.) ",
"L.}.4X}.`.H.k.J./.k.z.!.! . # O o o o o . X o X - q u 0 Y ! P.pX9XeX|.Q.].XXwXeX.XW.V.m.V.m.d.v.a.i.",
"/.6X4XK.`.).F.J._.F.s.` - X X & o X X o O o o o O - i 0 0 U M.pXgXpX XQ.|..XwX7X1X].Q.Q.W.C.b.n.a.i.",
"{.8X>XH.H.).H.H.J.G.( *   % X @ o X X X O o o O & * 0 0 i T M..XgXgX$X].XXwXyX9X7X X.XXX~.C.b.n.c.i.",
"_.}.,XJ.).H.H.`.5Xf.u . @ % % . o X O o o & & O o O - 0 0 0 U ( 8XpX7X|. XeXhXpX7X X7X.X].C.f.n.a.i.",
"F.H.J.,X`.).).,X8X(   . : O @ X o X o & & - & &   O * 0 i q u ^ 9XpX7X[. XeXhXgXeX6X7X.X|.R.n.n.a.i.",
"H.F.H.J.`.`.`.J.a.0 . . X ; . % o X o o O o o O @ - * * q - * ! pXhX7X]..XpXhXgXeX X XXX].R.n.n.a.i.",
"_._.`.`.`.`.`.F.p   o o o ; O @ o O O O     o o   & q - & & * ^ pXhX7XXXwXpXhXgXeX XXX|.~.R.n.m.a.a.",
"H.>XqX>X`.{.}.G.4 & O o @ % % = O   O O . @ ; 4 3 ; i q & ; * p yXhXrXwXrXyXhXgXrX.XXX|.].^.m.C.m.a.",
"`.8X0X8X:X`.J.,XY . O * O # @ @ * O - ; @ 7 F <.F m ' ' 2 8 a W kXaX9X%XrXsXgXpXwX$X@X@X|.R.Q.~.P.i.",
"`.8X0X8X,X`.,X>X_ % . O : : % d 1 1 1 + 6 H 4.=.D 2.Y.3XE 0 p p.lXhXyX9X3XrXpXaXyXrXrXrX.X~.|.|.P.i.",
"`.4X8X4X,X`.`.,X/ . $   + 4 4 6 6 n <.*.=.6.>.-.%.2.oXfXl.L e f.lXaXiXrXrXiXpXVXiXrXrXrX@X|.|.XXP.i.",
"}.>X4X,X,X`.J.`.s.o $ @ 4 c v M 4.7.w.w.w.8.8.9.5.0.#XlX2XL e _.IXaXsXtXuXhXhXVXaXrXrXrX@XXXXXXXI.a.",
"`.6X8X4X:X`.`.,XK.-   s 7 C [ { 0.e.e.e.e.7.5.{ K V x.dXqXU w P.DXhXaXsXaXhXhXhXaXtXtXtX&X@X@X@XI.c.",
"H.6X0X8X,XH.`.<XXXs   s 7 h k f 7 C 3.e.5.g 7 4 Z J | qXdXW q ' T.jXaXsXaXjXhXIXVXiXtXtX=X@X@X=X(.M.",
"F.<X8X8X:X).J.`.' h $ s x S F b s 7 g 4.4.x z c f C ] @XdXt.R }  .jXaXsXVXjXIXIXDXuXuXuX=X@X@X=X(.P.",
"'.<X6X6X<X:XH.F.Z S 1 s n N 8 i c z n 4.=.n F v t s x B.fXz.N.D.] JXhXAXJXDXKXkXDXVXmXmX=X@X&X=XOXP.",
"{.8X0X4X,X:X`.k.Z G 7 k Z x n #.n j j -.0.B.V $.D &.0.B.fX2XO.-.B.FXiXuXDXIXIXKXSXmXNXnX-X=X=X*XOXI.",
" XeXpX8X>X,X`.`.F 1.J c S %.1.*.&.S M $.5.Y.o.,.4.6.0.Y.fXfXO.G Y.FXiXVXSXKXKXGXSXNXNXnX-X-X-X-XOXI.",
" XpXpXqX8X:XJ.,X' S F c A -.6.5.-.x [ 8.r.Y.+.,.8.8.0.bXdXsX] [ +XSXVXCXCXGXLXGXSXMXMXNXnX-XnXtX*X(.",
"|.eX8X8XqX:XH.,XX.g j z <.>.9.7.-.Z H 6.5.+.0.-.w.w.r.AXqX@X[ Y.NXDXVXZXZXFXGXJXJXSXCXBXnXcXcX-X*XOX",
" X7X6X4XqX:XH.`.].J A z J 6.8.9.=.$.j S H H *.:.9.9.r.bXqXoXo.nXSXDXSXZXZXFXGXJXGXJXFXCXNXcX-X-X*XU.",
"7XeX6X4X8X:XH.H.,XX.[ c v H 4.-.<.&.j <.4.#.$.3.*.3.0.B.1XsXxXVXGXGXJXZXJXSXLXHXGXFXFXZXNXcXcX-X+XU.",
"7XeX8X8X<X{.).H.,Xb.x.^ x Z H %.x [ A &.1.$.2.[ D 5.B.B.3XkXvXVXJXJXHXBXHXKXLXUXJXFXFXCXNXcXcXcX+XU.",
"7X0X0X8X{.'.).)._.k.z./ x S H G h b x m @.n Q Q B 0.B.Y.3XfXNXVXSXSXJXBXHXKXKXUXHXFXFXBXNXcXcXcX+XU.",
" X7X8X1X<X`.k.F.F.H.p.g.! n %.-.Z g m 2.q.2.] B.o.+.B.oX@XDXuXmXVXCXCXCXFXHXHXLXHXJXFXCXBXnXcX-X+XI.",
" X7X6X{.:X`.F.k.k.l.p.g.^ x Z %.*.D A $.$.$.{ O.O.B.Y.A.@XDXuXmXSXSXCXCXFXJXHXLXJXFXCXBXNXcXcX-X+XI.",
" XeX7X}.`._.F.F.k.l.p.s...z x G 1.3.3.*.%.=.5.0.xXB.A.A.@XaXuXNXSXFXCXMXFXJXGXGXFXFXBXBXNXcXcXcX+XU.",
" XeXeX{.H.k.k.'.E.l.y.s.x.k z x *.%.;.4.4.4.0.D.xXN.v.Z.rXiX-XNXSXSXPXMXFXJXGXGXFXPXBXMXnXcX-XcX+XI.",
"[.7X<X}.H.h.h.).E.h.y.u.v.s s h Z B :.9.8.7.0.xX+.| p.W.rXiX=XnXVXMXMXMXMXFXJXSXFXMXMXNXcX-X-X-XOXI.",
"[.[._._.`.k.f.j.E.h.y.u.v.s k f k x H 1.4.;.[ ' ' | v.^.rXrXtX-XuXuXmXNXMXCXSXSXPXMXnXcXcX*X*X*XU.N.",
"[.[.G.F.'.'.l.l.G.l.g.s.p.z x h y 7 k l f f z R ' | N.^.3XrXtXtXiXiXuXtXmXMXVXVXMXnX-X-X-X*X+X+XU.c.",
"Q.[.E.F.`.'.j.l.j.l.g.u./ z F j n g h s k h V  .} +.N.A.@XrXrXtXuXuXuXtXnXmXVXVXNX-X-X*X*X*X+XOXI.c.",
"k.k.k.k.).k.l.j.J.j.^ p 5 h Z S Z n H 4.>.:.5.o.X.o.+.A.d.U #XaXaXaXiXtXtXuXiXjXuXtX*XOXOX+X@X@XI.c.",
"G.E.V.f.f.f.h.J./ U 0 ; k Z Z S n n H 4.:.;.{ ] o.] +.R.V.T T / $XyXtX@XtXmXVXjXuX=X*X=X+X^.I.(.M.x.",
"P.f.h.J.:X!.( U ; @ @ 3 f x S H B g Z D D D H [ [ [ } c.~.^ w L L N.iXiXwXrXaXaXaXtX@XOXOX(.I.P.c.) ",
"Q.[._.f.( p # < > > , , 7 Z D D %.Z Z G H A G H <.<.} N.I.R t t I w U ) &XaXaXaXyXwX&X@XoXI.M.b...) ",
":Xd.T ; + < < 3 < 3 , # 5 x H D A B Z H 3.*.G G H H ] B.| t 9 P r I t 9 R N.rXkXhX7X/.(.~.M.c.c.) / ",
"Y i @ $ < < 2 r # 3 2 # + 5 x H *.A Z Z A A A *.H H 0. .R t r P q t P t 9 9 T A.&X&XXX!.P.P.c.) ) / ",
"< > + = ; ; # + 4 # # # # , 5 z <.3.H Z S A %.*.<.{ [ s 9 t r t r t w q ; # = t T x.oX~.m.b.i./ ) ^ ",
"+ # # # # + + 1 > + , 3 3 # # , N G ;.%.*.4.4.;.G Z 1 r t ; t y 2 t t 9 # , ; 9 P L T p.m.a.) ) ^ ! ",
"+ + + # # , # # # # , , , , , , + , 5 k v V x l # r 2 r 3 ; P : q t , 2 2 + = + 4 L p R E x.a._ ^ Y ",
"# # + # # , # # # # , , , , , , 3 , + + + > > + # r 2 r 3 ; P : q t , 2 2 + = + 2 L w P E / p._ ! U "
};
