/* XPM */
static char *_ac4b5b713924445d6212c45d16a481eNKRIQrc2UxRzSRmY[] = {
/* columns rows colors chars-per-pixel */
"64 64 199 2 ",
"   c #010202",
".  c #0A0002",
"X  c #000B01",
"o  c #02010A",
"O  c #0A0109",
"+  c #050C0C",
"@  c #100007",
"#  c #001201",
"$  c #001A00",
"%  c #01170A",
"&  c #031C0D",
"*  c #002C04",
"=  c #002D0A",
"-  c #003400",
";  c #003A03",
":  c #01360B",
">  c #003C0D",
",  c #062714",
"<  c #052814",
"1  c #0A3612",
"2  c #043C14",
"3  c #083C16",
"4  c #0D371D",
"5  c #0C391D",
"6  c #11361F",
"7  c #043226",
"8  c #0C3522",
"9  c #003D22",
"0  c #0C3A23",
"q  c #073228",
"w  c #0E3628",
"e  c #0E3E29",
"r  c #123423",
"t  c #143A22",
"y  c #193A25",
"u  c #143928",
"i  c #004403",
"p  c #004B03",
"a  c #00450C",
"s  c #014A0C",
"d  c #0E4F0F",
"f  c #005103",
"g  c #01530C",
"h  c #014512",
"j  c #0D4514",
"k  c #044C13",
"l  c #0A4C15",
"z  c #03441B",
"x  c #024D1B",
"c  c #094C19",
"v  c #124B13",
"b  c #194915",
"n  c #164919",
"m  c #154515",
"M  c #025312",
"N  c #03511D",
"B  c #0B5B1A",
"V  c #0C5D11",
"C  c #0C6013",
"Z  c #056A1A",
"A  c #01731C",
"S  c #0E711F",
"D  c #054221",
"F  c #0B4122",
"G  c #0F432D",
"H  c #1B4622",
"J  c #14432C",
"K  c #154326",
"L  c #0B6620",
"P  c #066E21",
"I  c #0E6A24",
"U  c #146523",
"Y  c #126923",
"T  c #176B2D",
"R  c #0C7323",
"E  c #0E752C",
"W  c #14702D",
"Q  c #107D2D",
"!  c #167F35",
"~  c #207D37",
"^  c #227E3B",
"/  c #0E852B",
"(  c #0D8325",
")  c #10822D",
"_  c #198629",
"`  c #158B2B",
"'  c #0F8B33",
"]  c #168235",
"[  c #118B33",
"{  c #1F833B",
"}  c #118838",
"|  c #1A933A",
" . c #1B9B3B",
".. c #218139",
"X. c #238D3E",
"o. c #20963E",
"O. c #209D3F",
"+. c #11B22E",
"@. c #1BAE35",
"#. c #1DA63A",
"$. c #15AE3D",
"%. c #1CAD3C",
"&. c #0EBD3E",
"*. c #14B534",
"=. c #1CB535",
"-. c #16BB35",
";. c #1AB935",
":. c #16B53C",
">. c #1DB53C",
",. c #15B93B",
"<. c #1AB83B",
"1. c #20AE36",
"2. c #22A63E",
"3. c #23AD3D",
"4. c #28AE3D",
"5. c #22B435",
"6. c #20B832",
"7. c #22B33C",
"8. c #2AB33F",
"9. c #21BA3C",
"0. c #1CC03D",
"q. c #20C13F",
"w. c #1F9340",
"e. c #268F43",
"r. c #249242",
"t. c #299444",
"y. c #219E40",
"u. c #2C9449",
"i. c #369F4A",
"p. c #3C9F4D",
"a. c #1DAE41",
"s. c #15B641",
"d. c #1CB541",
"f. c #16BA41",
"g. c #16B941",
"h. c #15B941",
"j. c #1ABA41",
"k. c #1EB842",
"l. c #1DBC42",
"z. c #1FBA45",
"x. c #1DBA43",
"c. c #1DB348",
"v. c #14BA48",
"b. c #27A746",
"n. c #2AA545",
"m. c #24AD43",
"M. c #2BAE46",
"N. c #2AA549",
"B. c #24AD49",
"V. c #2DAE4B",
"C. c #35A34B",
"Z. c #3CA54D",
"A. c #34AB4B",
"S. c #3CA94E",
"D. c #20B341",
"F. c #20B340",
"G. c #22B240",
"H. c #22B241",
"J. c #23B141",
"K. c #22B640",
"L. c #23B745",
"P. c #23B342",
"I. c #2AB345",
"U. c #20B841",
"Y. c #21B942",
"T. c #21BA45",
"R. c #22BA43",
"E. c #28B942",
"W. c #25B349",
"Q. c #2FB24C",
"!. c #2FB14E",
"~. c #2BB34C",
"^. c #25BA4C",
"/. c #2BBB4D",
"(. c #33B44D",
"). c #38B64B",
"_. c #34B84B",
"`. c #3DA553",
"'. c #35AE54",
"]. c #3CAA54",
"[. c #3FA559",
"{. c #37AF58",
"}. c #3DAA59",
"|. c #2FB552",
" X c #33B453",
".X c #3AB155",
"XX c #30B852",
"oX c #34B35B",
"OX c #3EB45B",
"+X c #3BBC60",
"@X c #44A755",
"#X c #42AB55",
"$X c #41A65A",
"%X c #42AC5A",
"&X c #49AA5D",
"*X c #41B25B",
"=X c #4E9F62",
"-X c #45AD60",
";X c #26C142",
/* pixels */
"8.8.7.>.=.;.;.;.<.<.>.>.d.d.d.d.<.<.<.<.>.>.7.7.7.>.>.>.>.<.<.<.,.f.d.<.>.>.>.>.>.>.>.<.<.<.,.,.d.d.d.d.<.>.<.<.<.<.<.>.7.7.7.7.",
"8.8.7.>.=.=.;.<.<.>.>.>.>.d.d.d.<.<.<.>.>.>.7.7.7.7.>.>.>.<.<.<.<.<.d.<.>.>.>.>.>.>.>.>.<.<.<.<.<.d.d.>.>.>.>.<.<.<.<.>.>.7.7.7.",
"7.7.7.>.>.>.<.>.>.>.>.>.>.>.>.>.>.>.>.>.7.7.7.7.7.7.>.>.>.<.<.<.<.<.<.<.>.>.>.>.7.7.7.7.>.>.>.>.>.>.>.>.>.>.>.>.>.<.>.>.>.7.7.7.",
"7.>.>.>.>.>.>.>.>.7.7.7.7.7.>.>.7.G.G.G.G.7.7.7.7.>.>.>.>.>.>.>.>.>.>.>.>.>.>.>.>.7.7.7.7.7.7.7.>.>.7.7.7.7.7.>.>.>.>.>.>.>.>.7.",
">.>.>.>.>.>.>.7.7.7.7.7.7.7.5.7.7.G.G.G.G.7.7.>.>.>.>.>.>.>.>.>.>.>.>.>.>.>.>.>.>.>.7.7.G.G.G.7.5.5.5.7.7.7.7.G.G.d.d.>.>.>.>.>.",
"<.<.>.>.>.>.G.G.7.7.7.7.7.5.5.5.7.G.G.G.>.>.>.>.>.>.>.>.>.>.>.>.7.>.>.>.>.>.>.>.>.>.>.>.7.7.7.7.5.5.5.7.7.7.G.G.G.G.d.d.>.>.<.<.",
"<.<.<.>.>.G.G.G.G.7.>.>.>.=.=.=.7.7.>.>.>.<.<.<.<.<.<.>.>.>.7.7.7.7.>.>.>.<.<.<.<.<.<.>.>.>.7.7.=.=.=.=.>.>.G.G.G.G.G.d.>.<.<.<.",
"<.<.>.>.7.G.G.G.d.d.>.>.>.=.=.=.=.=.<.<.<.<.<.<.<.<.<.>.>.>.7.7.7.7.>.>.>.<.<.<.<.<.<.<.<.;.=.=.=.;.=.>.>.>.d.d.G.G.G.G.>.>.<.<.",
"<.<.>.>.7.7.G.d.d.d.j.<.:.<.*.;.;.;.;.;.,.,.,.,.:.:.*.>.U.K.K.7.7.7.>.K.d.:.<.:.,.,.,.,.;.;.;.;.;.=.=.*.<.j.d.d.d.G.G.G.>.>.<.<.",
"<.>.>.7.7.7.7.d.d.:.f.f.j.l.k.>.>.;.<.<.<.<.<.<.j.k.k.T.d.:.>.7.7.>.:.K.T.x.T.j.j.<.<.<.<.<.;.;.>.>.l.j.f.f.:.<.d.7.G.7.>.>.>.<.",
">.>.>.7.7.7.>.>.l.f.s.s.d.c.m.%.7.>.>.>.>.>.>.d.a.$.:.$.d.d.K.U.U.d.>.:.:.:.$.$.d.d.a.>.>.>.>.>.%.d.d.d.:.f.f.j.>.>.7.7.>.>.>.>.",
">.>.>.7.7.7.>.>.<.,.s.s.^.W. X X!.Q.!.!.!.!.!.!.|.W.W.$.L.T.k.<.:.<.U.>.d.W./. X!.!.!.!.!.!.!.(. X.XW.^.d.f.,.:.>.>.7.7.7.>.>.>.",
"d.>.>.7.7.7.>.=.:.:.x.c.B.[ e.X.r.r.e.e.r.r.r.w.|  .~.a.L.k.<.*.*.=.U.>.I.!.O.| r.r.r.e.e.e.e.e.X.X.[ B.c.j.,.:.>.=.7.7.7.7.>.d.",
"d.d.>.7.7.5.=.=.<.<.L.B.| g M s a h h a a s s s f A V.m.G.:.:.<.0.*.>.%.M.V.A p s s s a h h h h s g g | B.x.<.<.=.=.5.5.7.>.>.d.",
"d.d.>.>.5.5.=.=.=.:.W.V.t.s h 2 D D D D z z h k i P OXV.L.:.*.-.-.+.;.3.(..XR i k h z D D D D D h a i t.V.L.:.=.;.=.5.5.=.>.d.d.",
"d.<.>.>.7.5.=.=.<.:.m.V.u.a z F 0 8 r r 6 4 5 2 a L '.2.E.>.<.,.-.*.9.1.I.A.Y a 2 5 6 r r r w 0 F h i u.V.G.=.;.=.=.5.7.>.>.d.d.",
",.<.>.7.7.7.7.>.;.;.7.V.u.a D 0 # X         X # # g  X@.5.5.<.,.,.=.5.5.=.).g # # X   .     X # 8 z a t.M.7.;.;.=.7.7.7.G.d.<.<.",
"<.<.>.7.G.7.7.>.;.;.7.Q.u.h D w X     . . .   X X k  X=.5.5.<.f.f.<.5.5.=._.d X X   . . . .   X 8 D a t.M.7.;.;.=.7.G.G.G.d.<.<.",
"<.<.>.7.G.7.>.<.;.;.7.V.u.h D 8 X     . . .   X X x  X:.7.7.d.v.v.s.7.5.=. Xk X X   . . .     X 8 D a t.M.7.;.;.<.>.G.G.G.d.<.<.",
"<.>.>.7.7.7.>.<.;.<.G.V.u.a D 8 X       . .     X x oXs.>.k.s.v.v.s.>.>.:..Xx X o   . . .     X 8 z a t.V.7.<.<.<.>.G.G.G.d.>.<.",
">.>.>.7.G.>.>.<.,.<.G.V.u.a D 8 X       . .     X c oXa.d.>.d.f.f.:.;.>.:..Xl X o o .         X 4 z a t.V.K.<.,.<.>.>.G.G.7.>.>.",
">.>.>.7.7.>.<.<.,.<.G.V.t.a z 8                 X c {.a.K.>.<.<.<.<.;.>.>..Xl X     o           5 z a t.V.K.<.,.<.<.>.G.G.7.>.>.",
"=.=.7.7.>.>.<.<.,.<.G.V.t.a h 5                 X l %Xm.7.9.=.6.5.=.;.7.3.#Xl X       o         5 h s t.M.K.<.,.<.<.>.G.7.7.7.>.",
"=.>.7.>.>.>.<.<.,.d.d.!.r.p k 3 X             X # l %Xb.G.7.5.5.5.=.>.7.m.%Xl # X     o o     X 2 k p r.~.L.<.,.<.<.>.>.7.7.7.7.",
">.>.7.7.>.>.<.<.:.d.d.!.o.p i ; X   X X X X X # $ M -X'./.^.E.E.E.E.^.^. X%XM $ # X X X X X   X ; i f | XXd.j.:.<.<.>.>.7.7.7.7.",
">.>.7.7.>.>.<.<.<.k.a.B.y.A R Y l v l x x x l d B I ^ ! } [ / ( / / ' [ ! ..I B k l l c c l v d Y R A  .W.$.l.<.<.<.>.>.>.7.7.>.",
">.>.>.>.>.>.<.<.:.k.:.W.!.n..XA.(.(.~.|. X X].#X%X~ a > > h > a h > > > ; a ~ %X#X{.'. X X X(.(.A..Xb.~.W.$.k.:.<.<.>.>.>.>.>.>.",
">.>.>.>.>.>.>.>.>.T.:.d.I.m.(.3.=.*.:.:.:.>.3.4..X{ : K e 0 t t t 0 0 F K : { .Xm.3.$.:.:.:.*.=.3.(.I.I.G.:.T.>.>.>.>.>.>.>.>.>.",
"d.<.<.>.>.>.>.>.d.K.:.K.G.%.%.@.;.;.;.>.>.;.7.7.B.] * u q 7 7 7 7 7 7 7 t * ] B.7.7.>.>.>.;.;.;.@.%.%.K.K.:.d.d.>.>.>.>.>.>.>.<.",
"d.<.<.>.>.>.>.>.>.>.:.T.>.9.;.;X=.=.>.>.>.=.=.=./.Q # X X X X X X X X X X # Q /.=.=.>.>.7.>.=.=.;X9.>.U.U.>.:.>.>.>.>.>.>.<.<.<.",
"d.<.<.>.>.=.7.7.E.K.:.>.*.*.+.;.k.T.L.L.E.7.;.>.I.R X .   o         o   . X S I.>.;.7.E.W.L.T.R.;.*.*.*.<.>.>.7.7.7.>.>.>.<.<.d.",
"d.<.<.>.>.>.7.7.>.K.>.U.*.q.*.,.:.d.B.b.n.n.2.2.'.U X . . . . . . . . . . X U '.2.2.n.n.N.m.d.<.,.,.<.<.>.U.>.>.7.7.>.>.>.<.<.<.",
">.>.>.>.>.>.>.>.>.>.>.>.>.>.<.<.<.d.V.Z s N x N x = X   . @ . . O . @ .   X = x N x N s Z A.>.<.<.<.>.>.>.>.>.>.>.>.>.>.>.>.>.>.",
">.>.>.>.>.>.>.>.>.>.>.>.>.>.>.>.<.>.C.B 2 0 9 9 J < X   . . . o o   . .   X , J 9 9 5 : B A.>.,.<.>.>.>.>.>.>.>.>.>.>.>.>.>.>.>.",
">.>.>.>.>.>.>.>.>.>.>.>.>.>.>.>.<.G.].B 1 y e G 8 & X   . .   o o   . .   X & 8 J e t 1 B '.K.<.>.>.>.>.>.>.>.>.>.>.>.>.>.>.>.>.",
">.>.>.>.>.>.>.>.>.>.>.>.>.>.>.>.:.%.i.i $ # # # % X             o           X % # # X # a C.a.:.>.>.>.>.>.>.>.>.>.>.>.>.>.>.>.>.",
">.>.>.>.>.>.>.>.>.>.>.>.>.>.>.>.U.I.`.; X   X                 X X                     X ; `.I.l.>.>.>.>.>.>.>.>.>.>.>.>.>.>.>.>.",
">.>.>.>.>.>.>.>.>.>.>.>.>.>.>.>.:.2.p.- X   o                 X X             .   o   X - Z.3.:.>.>.>.>.>.>.>.>.>.>.>.>.>.>.>.>.",
">.>.>.>.>.>.>.>.>.>.>.>.>.>.>.>.U.I.@X- X       . .     . .     o     .     . .     .   - @XI.k.>.>.>.>.>.>.>.>.>.>.>.>.>.>.>.>.",
">.>.>.>.>.>.>.>.>.>.>.>.>.>.>.>.<.m.`.- X   o o . .     . . .       . .     . . o O . X - @XP.<.>.>.>.>.>.>.>.>.>.>.>.>.>.>.>.>.",
">.>.>.>.>.>.>.>.>.>.>.>.>.>.>.>.;.3.#X- X   o o . .     . . O . O O @ .     . . o     X - ].P.;.>.>.>.>.>.>.>.>.>.>.>.>.>.>.>.>.",
">.>.>.>.>.>.>.>.>.>.>.>.>.>.>.>.;.3.].- X   o o . O     . . O O . O . .     O O o     X - ].7.;.>.>.>.>.>.>.>.>.>.>.>.>.>.>.>.>.",
">.>.>.>.>.>.>.>.>.>.>.>.>.>.>.>.;.3.].- X   o o     X X X   .         X X X     o     X - ].7.;.>.>.>.>.>.>.>.>.>.>.>.>.>.>.>.>.",
">.>.>.>.>.>.>.>.>.>.>.>.>.>.>.>.;.3.].- X       + X $ # X X X X X X X X # $ X + o     X - ].P.;.>.>.>.>.>.>.>.>.>.>.>.>.>.>.>.>.",
">.>.>.>.>.>.>.>.>.>.>.>.>.>.>.>.>.3.].- X         # > - - - - ; ; - - - - > #         X - ].P.>.>.>.>.>.>.>.>.>.>.>.>.>.>.>.>.>.",
">.>.>.>.>.>.>.>.>.>.>.>.>.>.>.>.>.m.].- X       X H =X[.#XS.S.S.S.Z.Z.#X$X=XH X       X - ].P.d.>.>.>.>.>.>.>.>.>.>.>.>.>.>.>.>.",
">.>.>.>.>.>.>.>.>.>.>.>.>.>.>.>.d.m.}.- X       X n &Xn.m.3.7.7.E.7.%.m.b.&Xn X     . X - }.I.d.>.>.>.>.>.>.>.>.>.>.>.>.>.>.>.>.",
">.>.>.>.>.>.>.>.>.>.>.>.>.>.>.>.>.B.}.-   .     X l }.a.7.9.;.*.*.-.;.>.%.*Xv X     . X - }.m.>.>.>.>.>.>.>.>.>.>.>.>.>.>.>.>.>.",
">.>.>.>.>.>.>.>.>.>.>.>.>.>.>.>.<.I.`.:   .     X k OX$.9.>.;.;.;.;.;.>.$.OXl X X o     ; `.I.>.>.>.>.>.>.>.>.>.>.>.>.>.>.>.>.>.",
">.>.>.>.>.>.>.>.>.>.>.>.>.>.>.>.=.%.C.-   . o X X h oX$.E.7.=.;.*.*.9.7.a.{.j X X o .   - C.3.=.>.>.>.>.>.>.>.>.>.>.>.>.>.>.>.>.",
">.>.>.>.>.>.>.>.>.>.>.>.>.>.>.>.R.m.%X-   .     X j }.m.I.7.=.<.;.=.7.8.m.#Xm X     .   - %X3.E.>.>.>.>.>.>.>.>.>.>.>.>.>.>.>.>.",
">.>.>.>.>.>.>.>.>.>.>.>.>.>.>.>.=.#.%X-   .   X X b #Xm.I.7.>.<.<.<.7.4.M.#Xb X X   .   - %X#.@.>.>.>.>.>.>.>.>.>.>.>.>.>.>.>.>.",
">.>.>.>.>.>.>.>.>.>.>.>.>.>.>.>.7.I.*X; X X X # X v #XM.M.P.k.:.<.d.P.3.I.S.v # X X X X ; *XI.7.>.>.>.>.>.>.>.>.>.>.>.>.>.>.>.>.",
">.>.>.>.>.>.>.>.>.>.>.>.>.>.>.>.7.m.N.i $ $ $ $ $ V A.M.I.P.x.s.d.K.L.3.L.M.C $ $ $ # $ i N.P.>.>.>.>.>.>.>.>.>.>.>.>.>.>.>.>.>.",
">.>.>.>.>.>.>.>.>.>.>.>.>.>.>.>.7.I.b./ I W E E Z _ I.d.E.K.x.s.c.L.K.>.k.d.` Z E W T Y ) b.L.>.>.>.>.>.>.>.>.>.>.>.>.>.>.>.>.>.",
">.>.>.>.>.>.>.>.>.>.>.>.>.>.>.>.7.E.W.|.'.{.oX|. XI.U.<.>.:.d.x.x.:.d.<.,.,.I. X X'.].]. XW.K.>.>.>.>.>.>.>.>.>.>.>.>.>.>.>.>.>.",
">.>.>.>.>.>.>.>.>.>.>.>.>.>.>.>.7.7.d.d.W.W.c.d.7.7.<.<.<.<.f.f.d.d.<.,.-.-.<.>.d.W.M.M.W.d.>.<.>.>.>.>.>.>.>.>.>.>.>.>.>.>.>.>.",
">.>.>.>.>.>.>.>.>.>.>.>.>.>.>.>.>.>.<.d.d.d.<.<.=.=.;.;.>.<.,.f.d.>.<.<.-.-.;.>.>.d.P.P.d.<.<.<.>.>.>.>.>.>.>.>.>.>.>.>.>.>.>.>.",
">.>.>.>.>.>.>.>.>.>.>.>.>.>.>.>.=.;.<.>.>.7.7.7.5.5.5.=.=.<.,.,.<.<.<.;.;.=.5.5.8.7.7.7.>.<.<.<.>.>.>.>.>.>.>.>.>.>.>.>.>.>.>.>.",
">.>.>.>.>.>.>.>.>.>.>.>.>.>.>.>.=.<.<.>.7.7.8.8.5.5.5.5.=.>.<.<.<.<.>.>.=.5.5.5.8.8.7.7.>.<.<.<.>.>.>.>.>.>.>.>.>.>.>.>.>.>.>.>.",
">.>.>.>.>.>.>.>.>.>.>.>.>.>.>.>.<.<.>.>.7.8.8.8.8.5.5.5.=.>.>.>.<.<.>.>.7.5.5.8.8.7.7.7.>.>.<.<.>.>.>.>.>.>.>.>.>.>.>.>.>.>.>.>.",
">.>.>.>.>.>.>.>.>.>.>.>.>.>.>.>.<.<.>.7.7.7.7.7.>.>.>.>.>.>.7.7.>.>.>.7.7.7.7.7.7.7.>.>.>.>.>.>.>.>.>.>.>.>.>.>.>.>.>.>.>.>.>.>.",
">.>.>.>.>.>.>.>.>.>.>.>.>.>.>.>.>.>.>.>.d.>.>.<.,.,.,.<.<.>.7.7.7.>.>.>.>.>.<.,.d.s.f.:.d.d.G.G.>.>.>.>.>.>.>.>.>.>.>.>.>.>.>.>.",
">.>.>.>.>.>.>.>.>.>.>.>.>.>.>.>.d.d.d.d.d.d.d.f.&.&.,.,.<.>.7.7.7.7.>.>.d.d.f.h.h.h.h.f.d.d.G.G.>.>.>.>.>.>.>.>.>.>.>.>.>.>.>.>."
};
